#!OML:ASF Y:\EmotionMaleHayes\Project 1\Capture day 1\Session 1\Male1.ASF
:FULLY-SPECIFIED
:DEGREES
217
root 8.96903 17.1089 2.38924 1.11947 74.1665 1.43027
lowerback 8.74558 1.22862 -1.24916
upperback 6.0465 1.72525 0.96669
thorax 1.29757 0.887601 1.57102
lowerneck -21.7664 -4.52372 -0.725096
upperneck 12.6669 -6.9367 5.90089
head 7.70072 -2.72332 1.19245
rclavicle 3.06128e-014 7.55382e-015
rhumerus -51.7279 43.2522 -111.58
rradius 100.514
rwrist -9.07994
rhand -35.3253 -29.5433
rfingers 7.12502
rthumb -8.45873 -59.3539
lclavicle 3.06128e-014 7.55382e-015
lhumerus -48.5638 -47.6865 114.42
lradius 94.6901
lwrist 10.2135
lhand -24.2135 -35.4339
lfingers 7.12502
lthumb 2.27117 -5.46627
rfemur -0.642024 -4.04161 15.3145
rtibia 7.52962
rfoot -8.36889 8.0248
rtoes 10.3527
lfemur -1.71728 -0.910209 -11.2043
ltibia 20.5706
lfoot -19.296 11.1733
ltoes -14.8104
218
root 8.96219 17.1129 2.37488 1.8785 74.2379 2.09422
lowerback 8.77432 1.16534 -1.25675
upperback 6.05805 1.64133 0.919957
thorax 1.29803 0.846429 1.53299
lowerneck -21.6389 -4.50267 -0.701221
upperneck 12.5819 -6.91734 5.95267
head 7.65225 -2.71257 1.2109
rclavicle -1.39149e-014 -7.95139e-016
rhumerus -51.5331 42.995 -111.511
rradius 100.654
rwrist -9.56348
rhand -35.1698 -29.3842
rfingers 7.12502
rthumb -8.30861 -59.2008
lclavicle -1.39149e-014 -7.95139e-016
lhumerus -48.6274 -47.4944 114.539
lradius 94.7477
lwrist 10.4765
lhand -24.8378 -35.6725
lfingers 7.12502
lthumb 1.66822 -5.69923
rfemur -0.787932 -4.47473 15.0483
rtibia 7.48544
rfoot -8.35546 8.29624
rtoes 9.2567
lfemur -1.75703 -1.28838 -11.6102
ltibia 20.2493
lfoot -19.1986 10.7597
ltoes -14.369
219
root 8.95744 17.1194 2.35345 3.55673 74.3411 3.70862
lowerback 8.78988 1.08731 -1.34789
upperback 6.02143 1.5301 0.729693
thorax 1.25822 0.791327 1.39535
lowerneck -21.5404 -4.4923 -0.554218
upperneck 12.6943 -6.93719 5.86072
head 7.66528 -2.72284 1.15547
rclavicle -3.75703e-014 3.97569e-016
rhumerus -51.3766 42.6438 -111.571
rradius 100.704
rwrist -9.89209
rhand -35.0903 -29.1264
rfingers 7.12502
rthumb -8.23197 -58.9461
lclavicle -3.75703e-014 3.97569e-016
lhumerus -48.8238 -47.3181 114.684
lradius 94.8872
lwrist 10.9785
lhand -25.3591 -35.8332
lfingers 7.12502
lthumb 1.16473 -5.85667
rfemur -0.938939 -5.29859 14.3627
rtibia 7.52669
rfoot -8.29388 8.85165
rtoes 8.70096
lfemur -1.79058 -1.79106 -12.4126
ltibia 19.9154
lfoot -19.1101 10.6186
ltoes -13.9466
220
root 8.95269 17.1244 2.34433 4.47452 74.3265 4.60211
lowerback 8.8338 1.0352 -1.44399
upperback 6.03911 1.45512 0.632776
thorax 1.25559 0.753105 1.35438
lowerneck -21.7899 -4.49497 -0.325969
upperneck 13.1578 -6.99178 5.5758
head 7.84302 -2.74809 1.0106
rclavicle 2.16675e-014 -3.57812e-015
rhumerus -51.1543 42.3853 -111.584
rradius 100.741
rwrist -10.0969
rhand -34.8744 -28.9888
rfingers 7.12502
rthumb -8.02353 -58.8165
lclavicle 2.16675e-014 -3.57812e-015
lhumerus -48.7085 -47.218 114.664
lradius 95.003
lwrist 12.0563
lhand -25.7963 -35.9528
lfingers 7.12502
lthumb 0.742498 -5.9744
rfemur -1.00501 -5.32668 14.0615
rtibia 7.51048
rfoot -8.24797 8.83988
rtoes 9.92143
lfemur -1.78122 -2.07115 -12.8099
ltibia 19.6757
lfoot -19.1062 10.4423
ltoes -13.1605
221
root 8.9497 17.1312 2.34584 4.63739 74.1527 4.79924
lowerback 8.89713 1.01439 -1.60755
upperback 6.15567 1.42126 0.688653
thorax 1.33918 0.731185 1.50692
lowerneck -22.2093 -4.50138 -0.255712
upperneck 13.617 -7.0101 5.31643
head 8.05355 -2.75923 0.900363
rclavicle 9.83984e-015 -1.11319e-014
rhumerus -50.8816 42.4031 -111.439
rradius 100.862
rwrist -10.4733
rhand -34.7396 -28.7286
rfingers 7.12502
rthumb -7.89344 -58.5612
lclavicle 9.83984e-015 -1.11319e-014
lhumerus -48.3198 -47.0717 114.532
lradius 95.0865
lwrist 13.3459
lhand -26.2413 -36.2477
lfingers 7.12502
lthumb 0.31267 -6.26815
rfemur -1.00565 -4.70568 14.0936
rtibia 7.39165
rfoot -8.14686 8.43605
rtoes 11.0805
lfemur -1.62152 -2.21182 -12.8691
ltibia 19.4002
lfoot -19.0341 10.2758
ltoes -11.6495
222
root 8.95496 17.1429 2.35162 5.01363 73.9555 5.30186
lowerback 8.92322 1.00801 -1.88684
upperback 6.3127 1.40108 0.733484
thorax 1.48353 0.712164 1.71338
lowerneck -22.3495 -4.49583 -0.337398
upperneck 13.7493 -6.98156 5.28007
head 8.12178 -2.74797 0.901619
rclavicle -1.50082e-014 3.18055e-015
rhumerus -50.6454 42.4085 -111.331
rradius 100.891
rwrist -10.8723
rhand -34.7767 -28.2368
rfingers 7.12502
rthumb -7.92927 -58.0681
lclavicle -1.50082e-014 3.18055e-015
lhumerus -48.0912 -46.7783 114.433
lradius 95.2448
lwrist 14.3668
lhand -26.281 -36.4932
lfingers 7.12502
lthumb 0.274361 -6.51366
rfemur -0.837878 -4.07152 13.9882
rtibia 7.19167
rfoot -8.0466 7.99022
rtoes 11.4776
lfemur -1.26955 -2.44483 -13.0628
ltibia 19.0041
lfoot -18.8138 10.5222
ltoes -10.5324
223
root 8.96127 17.1541 2.3491 5.41947 73.766 5.77436
lowerback 8.90624 1.02528 -1.98699
upperback 6.39935 1.42163 0.698549
thorax 1.58152 0.719644 1.73357
lowerneck -22.1958 -4.47689 -0.358863
upperneck 13.7172 -6.94911 5.29801
head 8.08586 -2.73607 0.918196
rclavicle -2.19657e-014 1.98785e-015
rhumerus -50.3699 42.1182 -111.248
rradius 100.926
rwrist -11.5258
rhand -34.6206 -27.9389
rfingers 7.12502
rthumb -7.77861 -57.7758
lclavicle -2.19657e-014 1.98785e-015
lhumerus -47.8566 -46.3595 114.152
lradius 95.5192
lwrist 14.1835
lhand -25.8314 -35.5897
lfingers 7.12502
lthumb 0.708614 -5.61111
rfemur -0.7544 -3.57388 13.8531
rtibia 7.04817
rfoot -7.96162 7.62987
rtoes 11.9618
lfemur -0.968259 -2.61855 -13.2849
ltibia 18.5555
lfoot -18.5189 10.9938
ltoes -10.4901
224
root 8.96524 17.1571 2.33215 5.60215 73.4749 5.78282
lowerback 8.73032 1.08685 -1.77148
upperback 6.36886 1.517 0.623794
thorax 1.64785 0.773523 1.53148
lowerneck -22.0111 -4.44611 -0.346517
upperneck 13.746 -6.91384 5.31319
head 8.06407 -2.71995 0.928921
rclavicle -4.2043e-014 1.82882e-014
rhumerus -50.0597 41.7075 -111.135
rradius 101.075
rwrist -12.4665
rhand -34.4734 -27.8164
rfingers 7.12502
rthumb -7.63654 -57.6585
lclavicle -4.2043e-014 1.82882e-014
lhumerus -48.5156 -46.7596 114.908
lradius 95.7856
lwrist 17.2877
lhand -27.0824 -36.4022
lfingers 7.12502
lthumb -0.499681 -6.42299
rfemur -1.09555 -3.45726 13.7867
rtibia 7.19596
rfoot -7.91301 7.74691
rtoes 11.998
lfemur -0.910319 -2.57195 -13.3889
ltibia 18.1354
lfoot -18.2351 11.4523
ltoes -10.8553
225
root 8.9744 17.1619 2.31471 5.27665 73.3414 5.39094
lowerback 8.6603 1.07656 -1.41666
upperback 6.37648 1.52682 0.592277
thorax 1.70191 0.789519 1.3009
lowerneck -22.1379 -4.38332 -0.205197
upperneck 14.0067 -6.86933 5.20614
head 8.16277 -2.69238 0.872888
rclavicle -4.27387e-015 -2.38542e-015
rhumerus -49.9043 41.406 -111.097
rradius 101.169
rwrist -12.7968
rhand -34.517 -27.3087
rfingers 7.12502
rthumb -7.67856 -57.1493
lclavicle -4.27387e-015 -2.38542e-015
lhumerus -48.3675 -46.7195 114.844
lradius 95.871
lwrist 18.1877
lhand -27.6342 -35.9675
lfingers 7.12502
lthumb -1.03262 -5.99022
rfemur -1.15793 -3.64938 13.7932
rtibia 7.2796
rfoot -7.9858 8.04412
rtoes 11.9888
lfemur -0.730019 -2.57831 -13.3575
ltibia 17.7843
lfoot -17.979 11.7655
ltoes -11.1879
226
root 8.97308 17.1673 2.30908 4.63179 73.3008 4.73484
lowerback 8.71547 1.04375 -1.18415
upperback 6.43158 1.50044 0.634832
thorax 1.73388 0.783661 1.21606
lowerneck -22.4654 -4.30703 0.0475035
upperneck 14.2964 -6.82408 4.98781
head 8.29679 -2.66557 0.758484
rclavicle -3.80673e-014 3.97569e-015
rhumerus -49.7363 41.1391 -111.023
rradius 101.212
rwrist -12.5839
rhand -34.5253 -26.8815
rfingers 7.12502
rthumb -7.68658 -56.7218
lclavicle -3.80673e-014 3.97569e-015
lhumerus -47.9973 -46.6524 114.635
lradius 95.9601
lwrist 19.4818
lhand -28.0218 -35.7852
lfingers 7.12502
lthumb -1.40696 -5.81009
rfemur -1.08562 -3.51457 14.0463
rtibia 7.17591
rfoot -8.07399 7.90858
rtoes 12.6885
lfemur -0.561851 -2.43324 -13.0704
ltibia 17.4977
lfoot -17.7913 11.6479
ltoes -11.302
227
root 8.96058 17.174 2.3133 4.37269 73.3276 4.46587
lowerback 8.83291 1.01872 -1.21785
upperback 6.46818 1.46642 0.693383
thorax 1.70667 0.765617 1.29596
lowerneck -22.5698 -4.23264 0.224483
upperneck 14.3723 -6.75575 4.84174
head 8.32629 -2.63513 0.688615
rclavicle -3.17062e-014 1.82882e-014
rhumerus -49.4747 40.8247 -110.858
rradius 101.334
rwrist -12.5296
rhand -34.4045 -26.7525
rfingers 7.12502
rthumb -7.57 -56.597
lclavicle -3.17062e-014 1.82882e-014
lhumerus -47.7552 -46.7112 114.545
lradius 96.1727
lwrist 21.1184
lhand -28.5539 -35.5005
lfingers 7.12502
lthumb -1.9209 -5.52945
rfemur -1.04199 -2.92496 14.3384
rtibia 6.95824
rfoot -8.0515 7.30781
rtoes 13.5902
lfemur -0.503372 -2.16887 -12.7838
ltibia 17.2731
lfoot -17.6989 11.1911
ltoes -10.5958
